<?xml version="1.0" encoding="UTF-8"?><svg id="Layer_1" xmlns="http://www.w3.org/2000/svg" viewBox="0 0 500 500"><defs><style>.cls-1{fill:#fdb515;}</style></defs><g><path class="cls-1" d="M303.92,449.58c1.63-9.88,9.41-14.36,19.61-12.88,8.18,1.19,10.4,4.35,8.7,12.39-1.4,6.57-2.8,13.15-4.25,19.98,1.38,.33,2.45,.59,3.68,.89-.47,2.1,.24,4.76-3.28,5.07-4.4,.39-5.63-.25-6.94-3.93-3.83,1.39-7.55,3.21-11.49,4.05-5.74,1.23-9.91-.75-11.58-4.66-1.77-4.13-.27-10.78,3.99-13.43,3.43-2.13,7.61-3.13,11.56-4.28,2.31-.67,4.83-.6,7.25-.91,3.09-.39,4.92-2.14,4.94-5.28,.02-3.23-2.54-3.89-5-4.29-5.23-.84-8.17,.92-11.24,4.98-1.09,1.44-3.92,1.57-5.95,2.29Zm19.75,6.94c-3.67,.6-7.12,1.01-10.49,1.78-2.09,.48-4.58,1.04-5.92,2.47-1.36,1.45-2.29,4.11-2.02,6.06,.37,2.7,3.17,3.03,5.58,2.9,7.58-.38,11.97-4.91,12.85-13.22Z"/><path class="cls-1" d="M255.44,430.21h-16.2c-.45-5.78,.04-6.36,5.2-6.36,10.82,0,21.65,0,32.47,0h4.06c-.44,2.28-.78,4.08-1.2,6.26h-16.87c-3.17,14.84-6.26,29.35-9.39,44.02h-7.34c3.08-14.62,6.12-29.03,9.26-43.92Z"/><path class="cls-1" d="M366.5,473.93c-.71,.27-.82,.34-.93,.35q-7.17,.31-10.11-6.22c-.99-2.2-2.01-4.39-3.23-7.07-2.64,3.08-5.38,5.66-7.35,8.74-2.91,4.53-6.8,5.43-12.22,4.21,1.32-1.49,2.49-2.83,3.68-4.15,3.73-4.16,7.39-8.38,11.23-12.42,1.45-1.52,1.5-2.73,.59-4.55-2.48-4.94-4.73-9.99-7.29-15.46,2.49,0,4.38-.27,6.14,.09,1.21,.25,2.7,1.15,3.26,2.19,1.69,3.14,2.98,6.49,4.65,10.25,2.57-2.94,5.12-5.33,7.01-8.16,2.81-4.2,6.46-5.24,11.49-3.86-.58,.78-1.08,1.59-1.71,2.29-4.06,4.49-8.09,8.99-12.24,13.39-1.32,1.4-1.5,2.54-.62,4.29,2.64,5.26,5.07,10.63,7.65,16.11Z"/><path class="cls-1" d="M281.35,474.14h-6.6c1.9-9.08,3.76-17.91,5.61-26.74,.36-1.7,.75-3.4,1.1-5.1q1.07-5.29,7.01-4.71c-.09,1.3-.18,2.6-.27,3.99q7.8-5.27,12.43-4.62c-.14,1.1-.23,2.21-.43,3.3-.19,1.01-.51,2.01-.76,2.99-9.8,1.3-12.45,3.79-14.43,13.44-1.18,5.79-2.42,11.56-3.66,17.46Z"/></g><g><path class="cls-1" d="M430.41,57.4c4.56,2.5,5.64,6.21,4.76,10.8-.48,2.51-.74,5.06-1.15,7.58-.76,4.6-2.52,9.24,1.6,13.91h-12.72c.36-3.32,.67-6.7,1.11-10.06,.38-2.88,.96-5.73,1.34-8.61,.8-6.08-1.19-8.81-7.4-9.16-7.07-.4-14.18-.16-21.27-.37-2.26-.06-2.32,1.42-2.63,2.87-1.78,8.4-3.55,16.81-5.36,25.39h-9.44c4.67-22.07,9.31-43.94,13.97-65.94,.72-.13,1.38-.34,2.05-.34,10.47,0,20.94-.14,31.4,.09,17.6,.39,18.75,13.03,13.3,24.32-.93,1.93-2.51,3.63-4.05,5.16-1.54,1.53-3.41,2.71-5.52,4.35Zm-34.03-3.73c1.75,0,3.02,0,4.29,0,6.28-.03,12.58,.22,18.83-.18,7.48-.47,11.66-4.34,13.16-11.29,1.33-6.18-1.09-9.93-7.38-10.32-7.42-.45-14.87-.36-22.31-.33-.77,0-2.03,1.09-2.21,1.87-1.53,6.55-2.87,13.14-4.38,20.25Z"/><path class="cls-1" d="M273.45,51.56h36.06c.11,.44,.18,.56,.16,.66q-.96,7.49-8.49,7.49c-8.49,0-16.99,0-25.48,0-1.26,0-2.51,0-3.96,0-1.56,7.31-3.06,14.32-4.66,21.85h40.09c-.61,3-1.12,5.48-1.68,8.18h-49.38c4.68-22.05,9.32-43.96,14.01-66.05h48.56c-.44,2.31-.59,4.63-1.4,6.68-.32,.82-2.09,1.51-3.2,1.52-11.05,.11-22.11,.14-33.16,.01-2.54-.03-3.65,.57-4.07,3.28-.85,5.37-2.18,10.67-3.4,16.38Z"/><path class="cls-1" d="M370.37,89.74h-10.08c-.72-5.57-1.54-11.17-2.12-16.79-.21-2.04-.87-2.81-2.98-2.78-6.98,.1-13.97-.06-20.95,.14-1.18,.03-2.76,1.07-3.4,2.11-2.94,4.74-5.77,9.56-8.33,14.52-1.25,2.42-2.77,3.4-5.44,3.07-1.8-.22-3.65-.04-6.11-.04,.86-1.56,1.44-2.64,2.06-3.7,11.44-19.44,22.98-38.83,34.25-58.38,1.93-3.34,3.91-4.8,7.84-4.52,5.43,.38,5.51,.09,6.31,5.44,2.97,19.78,5.91,39.56,8.85,59.35,.07,.45,.07,.91,.11,1.59Zm-17.56-54.32c-.28,0-.57,0-.85,0-5.1,8.85-10.19,17.7-15.42,26.78h19.76c-1.19-9.14-2.34-17.96-3.49-26.77Z"/><path class="cls-1" d="M241.51,54.41c5.16,2.08,8.26,5.85,8.11,11.67-.27,10.44-7.68,19.75-17.84,22.43-2.24,.59-4.56,1.19-6.84,1.22-10.23,.13-20.45,.06-31.3,.06,.83-4.03,1.61-7.93,2.43-11.83,3.61-17.05,7.28-34.1,10.78-51.17,.51-2.49,1.33-3.45,4.02-3.39,8.96,.21,17.92,.06,26.88,.17,5.87,.07,11.41,1.46,13.88,7.41,2.64,6.36,.87,12.42-3.35,17.59-1.78,2.19-4.31,3.77-6.76,5.84Zm-32.18,4.89c-1.57,7.37-3.13,14.71-4.68,21.97,8.08,0,15.96,.33,23.79-.13,4.38-.25,7.59-3.28,9.76-7.13,4.24-7.55,1.37-13.98-7.01-14.6-7.15-.53-14.38-.11-21.86-.11Zm1.81-8.49c7.45,0,14.43,.5,21.3-.15,6.34-.6,10.22-5.56,10.48-11.59,.15-3.62-1.45-6.55-4.96-6.89-7.55-.74-15.16-.84-22.69-1.2-1.48,7.11-2.8,13.44-4.13,19.82Z"/></g><g><path class="cls-1" d="M317.53,403c-17.87,.2-33.08-6.07-45.23-19.11-8.39-9.02-16.36-18.44-24.35-27.82-9.06-10.63-18.81-20.49-32.08-25.67-9.19-3.59-18.78-6.15-28.09-9.46-10.32-3.68-20.19-8.41-25.92-18.37-7.66-13.3-8.68-27.58-2.77-41.61,4.35-10.32,13.64-15.11,24.57-15.56,5.73-.23,11.69,.56,17.25,2,13.89,3.58,26.76,1.41,39.03-5.5,4.96-2.8,9.93-5.62,14.63-8.83,14.21-9.71,29.59-10.97,45.75-6.64,11.28,3.02,21.68,8.09,30.17,16.11,8.04,7.58,15.04,16.21,19.74,26.38,3.73,8.07,1.98,16.16-.38,24.2-1.11,3.79-2.2,7.6-3.15,11.43-2.81,11.31,1.73,20.94,6.93,30.48,4.22,7.74,8.93,15.35,12.05,23.54,5.21,13.69,1.39,24.33-10.43,33-11.24,8.25-24.08,11.22-37.73,11.44Zm4.17-114.56c.06-18.77-14.19-33.16-32.94-33.27-18.82-.11-33.41,14.15-33.51,32.74-.1,18.9,14.3,33.64,32.98,33.74,18.81,.1,33.41-14.38,33.47-33.2Z"/><path class="cls-1" d="M262.68,189.49c1.43-19.27,8.77-36.03,26.17-46.85,15.25-9.48,30.32-2.85,34.5,14.54,4.8,19.95-7.8,47.85-25.93,57.44-16.2,8.56-31.31,.92-33.98-17.21-.35-2.41-.47-4.85-.76-7.92Z"/><path class="cls-1" d="M344.95,231.97c-10.49-.12-18.07-6.02-20.34-16.25-2.6-11.7,1.12-22.15,7.16-31.82,6.96-11.15,16.34-19.61,29.32-23.34,16.86-4.84,29.95,5.79,28.87,23.38-1.26,20.39-17.84,41.15-37.47,46.75-2.44,.69-5.02,.86-7.54,1.27Z"/><path class="cls-1" d="M404.88,215.44c14.26,0,22.85,9.84,20.65,23.23-.85,5.19-2.32,10.53-4.72,15.17-7.44,14.41-18.73,24.7-34.51,29.44-5.2,1.56-10.6,1.83-15.8,.03-9.32-3.23-13.7-11.9-12.15-23.52,2.68-20.12,23.32-41.12,43.31-44.03,1.38-.2,2.77-.27,3.22-.31Z"/><path class="cls-1" d="M386.97,349.63c-14.16-.24-23.67-8.59-23.11-20.99,.19-4.29,1.31-8.9,3.31-12.67,9.53-17.86,24.57-27.54,44.94-27.93,10.41-.2,18.48,5.43,21.16,14.02,1.99,6.38,.85,12.61-1.82,18.68-7.14,16.23-27,29.18-44.49,28.89Z"/><path class="cls-1" d="M192.86,211.18c.41-18.8,13.32-38.43,29.45-44.4,12.42-4.6,24.09,1.67,26.86,14.72,3.41,16.08-2.09,29.76-12.25,41.89-4.85,5.79-10.81,10.24-18.37,11.97-11.95,2.74-21.56-3.27-24.34-15.26-.68-2.93-.91-5.95-1.35-8.94Z"/><path class="cls-1" d="M349.32,112.72c-.58,.49-1.08,1.16-1.75,1.44-7.18,3.02-12.31,8.57-17.47,14.08-.87,.93-1.76,1.85-2.66,2.75q-7.5,7.6-17.61,4.08c-1.16-.41-2.43-1.12-3.12-2.07-.51-.71-.63-2.53-.13-3,4.15-3.88,8.39-7.68,12.79-11.26,4.16-3.38,9.06-4.96,14.45-5.35,3.33-.24,6.61-1.24,9.94-1.69,1.77-.24,3.61-.04,5.41-.04,.05,.36,.09,.71,.14,1.07Z"/><path class="cls-1" d="M272.67,136.07c-1.04,1.11-1.34,1.67-1.78,1.85-8.73,3.56-14.42,10.79-20.8,17.17-7.41,7.42-7.42,7.51-17.21,4.25-1.83-.61-3.35-2.14-5.61-3.65,8.43-6.83,14.44-15.86,25.1-17.45,6.38-.95,12.79-3.54,20.31-2.18Z"/><path class="cls-1" d="M451.21,249.14c.24,1.93,.65,3.85,.68,5.78,.05,3.02-.46,6.06-.19,9.05,.7,7.7-1.7,14.4-5.97,20.62-2.04,2.97-4.13,5.91-5.92,9.03-1.41,2.45-2.91,2.17-4.25,.36-1.28-1.73-1.82-4.01-3.12-5.71-4.41-5.77-1.14-9.77,2.43-14.35,4.54-5.82,8.45-12.14,12.4-18.4,1.18-1.88,1.59-4.24,2.36-6.39,.52,0,1.04,0,1.57,.01Z"/><path class="cls-1" d="M428.42,225.99c-1.37-1.89-3-3.74-4.17-5.84-1.28-2.31-2.29-4.8-3.1-7.31-.28-.86,.14-2.24,.72-3.03,3.37-4.6,7.13-8.92,10.26-13.67,2.72-4.12,4.78-8.67,7.12-13.04,.68-1.27,1.27-2.58,1.9-3.87l1.22,.09c.23,2.03,.49,4.07,.68,6.1,1.45,15.44-3.05,28.84-14.62,40.57Z"/><path class="cls-1" d="M379.33,153.57c1.41-.97,3.14-1.91,4.57-3.19,4.65-4.15,9.12-8.51,13.8-12.62,2.32-2.03,4.97-3.68,7.89-5.07-1.25,10.75-3.29,20.86-10.13,29.29-1.49,1.84-2.57,1.93-4.48,.31-3.58-3.02-7.5-5.65-11.66-8.71Z"/><path class="cls-1" d="M288.58,260.12c15.32,.04,27.81,12.57,27.95,28.04,.14,15.43-12.6,28.43-27.95,28.51-15.28,.09-28.02-12.76-28.1-28.34-.09-15.49,12.63-28.25,28.11-28.21Zm16.05,34.42c-2.28,.43-4.85-1.47-6.52,2.06-3.28,6.96-12.77,7.49-17.13,1.04-3.61-5.34-3.69-11.12-1.28-16.97,1.93-4.67,5.79-6.94,10.79-6.5,4.92,.43,7.21,3.69,8.42,8.03h5.52c-.33-5.61-2.28-8.97-6.44-11.39-9.81-5.68-22.29-1.14-25.53,9.66-1.07,3.57-1.23,7.6-.91,11.35,.66,7.85,6.68,14.05,14.31,15.55,9.63,1.89,18.09-3.82,18.78-12.85Z"/></g></svg>