<?xml version="1.0" encoding="UTF-8"?><svg id="Layer_1" xmlns="http://www.w3.org/2000/svg" viewBox="0 0 252.58 366.07"><defs><style>.cls-1{fill:#fdb515;}</style></defs><g><path class="cls-1" d="M122.34,340.14c1.63-9.88,9.41-14.36,19.61-12.88,8.18,1.19,10.4,4.35,8.7,12.39-1.4,6.57-2.8,13.15-4.25,19.98,1.38,.33,2.45,.59,3.68,.89-.47,2.1,.24,4.76-3.28,5.07-4.4,.39-5.63-.25-6.94-3.93-3.83,1.39-7.55,3.21-11.49,4.05-5.74,1.23-9.91-.75-11.58-4.66-1.77-4.13-.27-10.78,3.99-13.43,3.43-2.13,7.61-3.13,11.56-4.28,2.31-.67,4.83-.6,7.25-.91,3.09-.39,4.92-2.14,4.94-5.28,.02-3.23-2.54-3.89-5-4.29-5.23-.84-8.17,.92-11.24,4.98-1.09,1.44-3.92,1.57-5.95,2.29h0Zm19.75,6.95c-3.67,.6-7.12,1.01-10.49,1.78-2.09,.48-4.58,1.04-5.92,2.47-1.36,1.45-2.29,4.11-2.02,6.06,.37,2.7,3.17,3.03,5.58,2.9,7.58-.38,11.97-4.91,12.85-13.22h0Z"/><path class="cls-1" d="M73.85,320.77h-16.2c-.45-5.78,.04-6.36,5.2-6.36h36.53c-.44,2.28-.78,4.08-1.2,6.26h-16.87c-3.17,14.84-6.26,29.35-9.39,44.02h-7.34c3.08-14.62,6.12-29.03,9.26-43.92h.01Z"/><path class="cls-1" d="M184.91,364.49c-.71,.27-.82,.34-.93,.35-4.78,.21-8.15-1.87-10.11-6.22-.99-2.2-2.01-4.39-3.23-7.07-2.64,3.08-5.38,5.66-7.35,8.74-2.91,4.53-6.8,5.43-12.22,4.21,1.32-1.49,2.49-2.83,3.68-4.15,3.73-4.16,7.39-8.38,11.23-12.42,1.45-1.52,1.5-2.73,.59-4.55-2.48-4.94-4.73-9.99-7.29-15.46,2.49,0,4.38-.27,6.14,.09,1.21,.25,2.7,1.15,3.26,2.19,1.69,3.14,2.98,6.49,4.65,10.25,2.57-2.94,5.12-5.33,7.01-8.16,2.81-4.2,6.46-5.24,11.49-3.86-.58,.78-1.08,1.59-1.71,2.29-4.06,4.49-8.09,8.99-12.24,13.39-1.32,1.4-1.5,2.54-.62,4.29,2.64,5.26,5.07,10.63,7.65,16.11v-.02Z"/><path class="cls-1" d="M99.77,364.7h-6.6c1.9-9.08,3.76-17.91,5.61-26.74,.36-1.7,.75-3.4,1.1-5.1,.71-3.53,3.05-5.1,7.01-4.71-.09,1.3-.18,2.6-.27,3.99,5.2-3.51,9.34-5.05,12.43-4.62-.14,1.1-.23,2.21-.43,3.3-.19,1.01-.51,2.01-.76,2.99-9.8,1.3-12.45,3.79-14.43,13.44-1.18,5.79-2.42,11.56-3.66,17.46h0Z"/></g><g><path class="cls-1" d="M240.13,34.06c4.56,2.5,5.64,6.21,4.76,10.8-.48,2.51-.74,5.06-1.15,7.58-.76,4.6-2.52,9.24,1.6,13.91h-12.72c.36-3.32,.67-6.7,1.11-10.06,.38-2.88,.96-5.73,1.34-8.61,.8-6.08-1.19-8.81-7.4-9.16-7.07-.4-14.18-.16-21.27-.37-2.26-.06-2.32,1.42-2.63,2.87-1.78,8.4-3.55,16.81-5.36,25.39h-9.44c4.67-22.07,9.31-43.94,13.97-65.94,.72-.13,1.38-.34,2.05-.34,10.47,0,20.94-.14,31.4,.09,17.6,.39,18.75,13.03,13.3,24.32-.93,1.93-2.51,3.63-4.05,5.16-1.54,1.53-3.41,2.71-5.52,4.35h0Zm-34.03-3.72h4.29c6.28-.03,12.58,.22,18.83-.18,7.48-.47,11.66-4.34,13.16-11.29,1.33-6.18-1.09-9.93-7.38-10.32-7.42-.45-14.87-.36-22.31-.33-.77,0-2.03,1.09-2.21,1.87-1.53,6.55-2.87,13.14-4.38,20.25h0Z"/><path class="cls-1" d="M83.17,28.22h36.06c.11,.44,.18,.56,.16,.66-.64,4.99-3.47,7.49-8.49,7.49h-29.44c-1.56,7.31-3.06,14.32-4.66,21.85h40.09c-.61,3-1.12,5.48-1.68,8.18h-49.38c4.68-22.05,9.32-43.96,14.01-66.05h48.56c-.44,2.31-.59,4.63-1.4,6.68-.32,.82-2.09,1.51-3.2,1.52-11.05,.11-22.11,.14-33.16,.01-2.54-.03-3.65,.57-4.07,3.28-.85,5.37-2.18,10.67-3.4,16.38h0Z"/><path class="cls-1" d="M180.09,66.4h-10.08c-.72-5.57-1.54-11.17-2.12-16.79-.21-2.04-.87-2.81-2.98-2.78-6.98,.1-13.97-.06-20.95,.14-1.18,.03-2.76,1.07-3.4,2.11-2.94,4.74-5.77,9.56-8.33,14.52-1.25,2.42-2.77,3.4-5.44,3.07-1.8-.22-3.65-.04-6.11-.04,.86-1.56,1.44-2.64,2.06-3.7,11.44-19.44,22.98-38.83,34.25-58.38,1.93-3.34,3.91-4.8,7.84-4.52,5.43,.38,5.51,.09,6.31,5.44,2.97,19.78,5.91,39.56,8.85,59.35,.07,.45,.07,.91,.11,1.59h-.01Zm-17.56-54.33h-.85c-5.1,8.85-10.19,17.7-15.42,26.78h19.76c-1.19-9.14-2.34-17.96-3.49-26.77h0Z"/><path class="cls-1" d="M51.23,31.07c5.16,2.08,8.26,5.85,8.11,11.67-.27,10.44-7.68,19.75-17.84,22.43-2.24,.59-4.56,1.19-6.84,1.22-10.23,.13-20.45,.06-31.3,.06,.83-4.03,1.61-7.93,2.43-11.83C9.4,37.57,13.07,20.52,16.57,3.45,17.08,.94,17.91,0,20.59,.05c8.96,.21,17.92,.06,26.88,.17,5.87,.07,11.41,1.46,13.88,7.41,2.64,6.36,.87,12.42-3.35,17.59-1.78,2.19-4.31,3.77-6.76,5.84h0Zm-32.18,4.9c-1.57,7.37-3.13,14.71-4.68,21.97,8.08,0,15.96,.33,23.79-.13,4.38-.25,7.59-3.28,9.76-7.13,4.24-7.55,1.37-13.98-7.01-14.6-7.15-.53-14.38-.11-21.86-.11Zm1.81-8.49c7.45,0,14.43,.5,21.3-.15,6.34-.6,10.22-5.56,10.48-11.59,.15-3.62-1.45-6.55-4.96-6.89-7.55-.74-15.16-.84-22.69-1.2-1.48,7.11-2.8,13.44-4.13,19.82h0Z"/></g><g><path class="cls-1" d="M136.81,320.95c-15.07,.17-27.89-5.12-38.14-16.11-7.07-7.61-13.8-15.55-20.53-23.46-7.64-8.96-15.86-17.28-27.05-21.65-7.75-3.03-15.84-5.19-23.69-7.98-8.7-3.1-17.03-7.09-21.86-15.49-6.46-11.22-7.32-23.26-2.34-35.09,3.67-8.7,11.5-12.74,20.72-13.12,4.83-.19,9.86,.47,14.55,1.69,11.71,3.02,22.57,1.19,32.91-4.64,4.18-2.36,8.37-4.74,12.34-7.45,11.98-8.19,24.95-9.25,38.58-5.6,9.51,2.55,18.28,6.82,25.44,13.58,6.78,6.39,12.68,13.67,16.65,22.25,3.15,6.81,1.67,13.63-.32,20.41-.94,3.2-1.86,6.41-2.66,9.64-2.37,9.54,1.46,17.66,5.84,25.7,3.56,6.53,7.53,12.94,10.16,19.85,4.39,11.54,1.17,20.52-8.8,27.83-9.48,6.96-20.31,9.46-31.82,9.65h0Zm3.52-96.61c.05-15.83-11.97-27.96-27.78-28.06-15.87-.09-28.17,11.93-28.26,27.61-.08,15.94,12.06,28.37,27.81,28.45,15.86,.08,28.17-12.13,28.22-28h0Z"/><path class="cls-1" d="M90.56,140.9c1.21-16.25,7.4-30.38,22.07-39.51,12.86-7.99,25.57-2.4,29.09,12.26,4.05,16.82-6.58,40.35-21.87,48.44-13.66,7.22-26.4,.78-28.65-14.51-.3-2.03-.4-4.09-.64-6.68h0Z"/><path class="cls-1" d="M159.93,176.72c-8.85-.1-15.24-5.08-17.15-13.7-2.19-9.87,.94-18.68,6.04-26.83,5.87-9.4,13.78-16.54,24.72-19.68,14.22-4.08,25.26,4.88,24.34,19.72-1.06,17.19-15.04,34.7-31.6,39.42-2.06,.58-4.23,.73-6.36,1.07h0Z"/><path class="cls-1" d="M210.47,162.79c12.02,0,19.27,8.3,17.41,19.59-.72,4.38-1.96,8.88-3.98,12.79-6.27,12.15-15.79,20.83-29.1,24.83-4.38,1.32-8.94,1.54-13.32,.03-7.86-2.72-11.55-10.03-10.25-19.83,2.26-16.97,19.66-34.67,36.52-37.13,1.16-.17,2.34-.23,2.72-.26h0Z"/><path class="cls-1" d="M195.37,275.94c-11.94-.2-19.96-7.24-19.49-17.7,.16-3.62,1.1-7.5,2.79-10.68,8.04-15.06,20.72-23.22,37.9-23.55,8.78-.17,15.58,4.58,17.84,11.82,1.68,5.38,.72,10.63-1.53,15.75-6.02,13.69-22.77,24.61-37.52,24.36h0Z"/><path class="cls-1" d="M31.68,159.19c.35-15.85,11.23-32.41,24.83-37.44,10.47-3.88,20.31,1.41,22.65,12.41,2.88,13.56-1.76,25.1-10.33,35.32-4.09,4.88-9.12,8.63-15.49,10.09-10.08,2.31-18.18-2.76-20.52-12.87-.57-2.47-.77-5.02-1.14-7.54v.02Z"/><path class="cls-1" d="M163.63,76.17c-.49,.41-.91,.98-1.48,1.21-6.05,2.55-10.38,7.23-14.73,11.87-.73,.78-1.48,1.56-2.24,2.32-4.22,4.27-9.17,5.42-14.85,3.44-.98-.35-2.05-.94-2.63-1.75-.43-.6-.53-2.13-.11-2.53,3.5-3.27,7.07-6.48,10.79-9.5,3.51-2.85,7.64-4.18,12.19-4.51,2.81-.2,5.57-1.05,8.38-1.43,1.49-.2,3.04-.03,4.56-.03,.04,.3,.08,.6,.12,.9h0Z"/><path class="cls-1" d="M98.98,95.86c-.88,.94-1.13,1.41-1.5,1.56-7.36,3-12.16,9.1-17.54,14.48-6.25,6.26-6.26,6.33-14.51,3.58-1.54-.51-2.82-1.8-4.73-3.08,7.11-5.76,12.18-13.37,21.17-14.71,5.38-.8,10.79-2.99,17.13-1.84h0Z"/><path class="cls-1" d="M249.54,191.2c.2,1.63,.55,3.25,.57,4.87,.04,2.55-.39,5.11-.16,7.63,.59,6.49-1.43,12.14-5.03,17.39-1.72,2.5-3.48,4.98-4.99,7.61-1.19,2.07-2.45,1.83-3.58,.3-1.08-1.46-1.53-3.38-2.63-4.81-3.72-4.87-.96-8.24,2.05-12.1,3.83-4.91,7.13-10.24,10.46-15.52,1-1.59,1.34-3.58,1.99-5.39,.44,0,.88,0,1.32,0h0Z"/><path class="cls-1" d="M230.32,171.68c-1.16-1.59-2.53-3.15-3.52-4.92-1.08-1.95-1.93-4.05-2.61-6.16-.24-.73,.12-1.89,.61-2.56,2.84-3.88,6.01-7.52,8.65-11.53,2.29-3.47,4.03-7.31,6-11,.57-1.07,1.07-2.18,1.6-3.26l1.03,.08c.19,1.71,.41,3.43,.57,5.14,1.22,13.02-2.57,24.32-12.33,34.21h0Z"/><path class="cls-1" d="M188.93,110.61c1.19-.82,2.65-1.61,3.85-2.69,3.92-3.5,7.69-7.18,11.64-10.64,1.96-1.71,4.19-3.1,6.65-4.28-1.05,9.06-2.77,17.59-8.54,24.7-1.26,1.55-2.17,1.63-3.78,.26-3.02-2.55-6.32-4.76-9.83-7.34h0Z"/><path class="cls-1" d="M112.41,200.46c12.92,.03,23.45,10.6,23.57,23.64,.12,13.01-10.63,23.97-23.57,24.04-12.88,.08-23.63-10.76-23.7-23.9-.08-13.06,10.65-23.82,23.7-23.79h0Zm13.53,29.02c-1.92,.36-4.09-1.24-5.5,1.74-2.77,5.87-10.77,6.32-14.44,.88-3.04-4.5-3.11-9.38-1.08-14.31,1.63-3.94,4.88-5.85,9.1-5.48,4.15,.36,6.08,3.11,7.1,6.77h4.65c-.28-4.73-1.92-7.56-5.43-9.6-8.27-4.79-18.8-.96-21.53,8.15-.9,3.01-1.04,6.41-.77,9.57,.56,6.62,5.63,11.85,12.07,13.11,8.12,1.59,15.25-3.22,15.84-10.84v.02Z"/></g></svg>